Coordinates
version=1
nRows=11
nColumns=42
inDegrees=yes

Units are S.I. units (second, meters, Newtons, ...)
If the header above contains a line with 'inDegrees', this indicates whether rotational values are in degrees (yes) or radians (no).

endheader
time	pelvis_tilt	pelvis_list	pelvis_rotation	pelvis_tx	pelvis_ty	pelvis_tz	hip_flexion_r	hip_adduction_r	hip_rotation_r	knee_angle_r	knee_adduction_r	knee_angle_r_beta	ankle_angle_r	subtalar_angle_r	mtp_angle_r	hip_flexion_l	hip_adduction_l	hip_rotation_l	knee_angle_l	knee_adduction_l	knee_angle_l_beta	ankle_angle_l	subtalar_angle_l	mtp_angle_l	lumbar_extension	lumbar_bending	lumbar_rotation	arm_flex_r	arm_add_r	arm_rot_r	elbow_flex_r	pro_sup_r	wrist_flex_r	wrist_dev_r	arm_flex_l	arm_add_l	arm_rot_l	elbow_flex_l	pro_sup_l	wrist_flex_l	wrist_dev_l
      0.40000000	      7.35338828	     -2.94073074	     10.89333837	     -1.08956562	      0.87193439	      0.19283468	     -0.10630356	      8.70285908	     -0.87696691	     14.78521247	      2.25566421	      0.25805064	     17.24661669	    -13.48771830	     -9.71176787	     13.34952969	     -0.49090187	      3.98085194	     63.55153409	     -8.14246368	      1.10918351	     16.11860159	    -17.84982317	     -9.71176787	    -36.40379728	      9.14149075	     -4.31645826	     15.33142201	    -12.27940912	      0.88672435	     37.93533612	     90.00000001	      0.00000000	      0.00000000	     15.57646418	    -13.33992948	     -2.96635522	     37.96432532	     90.00000001	      0.00000000	      0.00000000
      0.41000000	      7.34971635	     -2.68821830	     10.77812179	     -1.08109084	      0.87220585	      0.19351204	     -0.73583598	      8.62493473	     -0.91164844	     14.93429675	      2.17586050	      0.26065265	     17.94264365	    -13.25209576	     -9.65644541	     14.33789836	      0.06756406	      3.71783844	     62.40181310	     -8.27919187	      1.08911710	     16.25848354	    -17.87215868	     -9.65644541	    -36.48359097	      8.79420069	     -4.20897813	     16.07435205	    -12.47418564	      1.12967819	     38.18040628	     90.00000001	      0.00000000	      0.00000000	     15.13548972	    -13.17466720	     -2.96119073	     37.25598177	     90.00000001	      0.00000000	      0.00000000
      0.42000000	      7.26077280	     -2.60164404	     10.70008577	     -1.07267238	      0.87204724	      0.19425222	     -1.22152105	      8.80960654	     -0.97620408	     15.06105680	      1.89289939	      0.26286503	     18.41402116	    -13.00789029	     -9.62407909	     15.48385984	      0.42465112	      3.58118158	     61.17850692	     -8.30788911	      1.06776638	     16.43425248	    -17.72080931	     -9.62407909	    -36.44227521	      8.60937725	     -4.07712725	     16.79180648	    -12.65638408	      1.24690080	     38.55298845	     90.00000001	      0.00000000	      0.00000000	     14.56436375	    -13.02081566	     -2.96803693	     36.82139087	     90.00000001	      0.00000000	      0.00000000
      0.43000000	      7.30058640	     -2.33468498	     10.48733159	     -1.06413482	      0.87218119	      0.19489969	     -1.92647700	      8.76503943	     -0.74148605	     15.16188573	      1.72345515	      0.26462483	     19.21486893	    -12.91227544	     -9.58306603	     16.24690007	      0.98121076	      3.43376404	     59.56266990	     -8.24178472	      1.03956470	     16.48495562	    -17.76687271	     -9.58306603	    -36.55673004	      8.21650277	     -3.93248307	     17.55996483	    -12.89865371	      1.60848390	     38.85463617	     90.00000001	      0.00000000	      0.00000000	     14.17990822	    -12.82592865	     -3.10787680	     36.00085989	     90.00000001	      0.00000000	      0.00000000
      0.44000000	      7.46701313	     -2.03963655	     10.29579748	     -1.05543257	      0.87259343	      0.19526371	     -2.92726450	      8.55418041	     -0.31792693	     15.00132739	      1.89651851	      0.26182256	     19.68363455	    -12.75379048	     -9.51083164	     16.72950357	      1.52156250	      3.32369775	     57.57924922	     -8.07969405	      1.00494748	     16.19140978	    -17.77678211	     -9.51083164	    -36.79013538	      7.85044219	     -3.81793625	     18.29517654	    -13.25145925	      2.33413935	     39.22478350	     90.00000001	      0.00000000	      0.00000000	     13.80929913	    -12.54651897	     -3.61146425	     35.11660551	     90.00000001	      0.00000000	      0.00000000
      0.45000000	      7.48760692	     -1.90756359	     10.17121490	     -1.04686224	      0.87239258	      0.19564513	     -3.68363564	      8.63279589	      0.04351465	     14.90106180	      1.77614130	      0.26007259	     20.13325759	    -12.80616669	     -9.43516873	     17.46664446	      1.86827246	      3.37038083	     55.64284452	     -7.77835420	      0.97115084	     16.11308957	    -17.70872180	     -9.43516873	    -36.83478234	      7.64573444	     -3.72940316	     19.03430932	    -13.53967973	      2.87768520	     39.61619076	     90.00000001	      0.00000000	      0.00000000	     13.30952511	    -12.31880529	     -4.03091542	     34.48316599	     90.00000001	      0.00000000	      0.00000000
      0.46000000	      7.27018585	     -2.04847697	     10.16003878	     -1.03851409	      0.87132751	      0.19601883	     -3.96730203	      9.02420378	     -0.04817596	     15.03833731	      1.50174168	      0.26246850	     20.54392046	    -12.57120964	     -9.40575783	     18.71316790	      1.88461190	      3.26468885	     53.88640183	     -7.55891753	      0.94049513	     16.17217768	    -17.33708067	     -9.40575783	    -36.57205875	      7.71903766	     -3.62697047	     19.74281796	    -13.73373234	      2.95228626	     40.04375214	     90.00000001	      0.00000000	      0.00000000	     12.63499404	    -12.15985945	     -4.07516654	     34.19564572	     90.00000001	      0.00000000	      0.00000000
      0.47000000	      7.49274016	     -1.76622391	     10.00901935	     -1.02975987	      0.87147890	      0.19604820	     -5.14919903	      8.89191123	      0.56882974	     14.65108482	      1.52093599	      0.25570967	     21.05478300	    -12.78653141	     -9.31590818	     18.87141857	      2.36223669	      3.45903213	     51.31069300	     -7.06259806	      0.89554053	     15.86102850	    -17.54997613	     -9.31590818	    -36.83459896	      7.41901654	     -3.60056733	     20.50569057	    -14.08283655	      3.85377754	     40.44345370	     90.00000001	      0.00000000	      0.00000000	     12.31237860	    -11.85499051	     -4.96299367	     33.26263967	     90.00000001	      0.00000000	      0.00000000
      0.48000000	      7.48311616	     -1.75748157	      9.92832636	     -1.02120893	      0.87081096	      0.19614425	     -5.91029448	      9.07313800	      0.94540662	     14.43677103	      1.42009029	      0.25196919	     21.44533748	    -12.90301916	     -9.22089192	     19.50306596	      2.49308313	      3.42845295	     48.89980550	     -6.67363314	      0.85346261	     15.72937200	    -17.36154288	     -9.22089192	    -36.80685740	      7.37899850	     -3.51886617	     21.23349932	    -14.37261016	      4.35585793	     40.87130932	     90.00000001	      0.00000000	      0.00000000	     11.81447921	    -11.60503338	     -5.52908342	     32.69129456	     90.00000001	      0.00000000	      0.00000000
      0.49000000	      7.34806785	     -1.83751635	      9.85827717	     -1.01270904	      0.86965436	      0.19630647	     -6.38643407	      9.37909540	      0.98742423	     14.47726001	      1.16127805	      0.25267585	     22.07096403	    -12.76599648	     -9.17809930	     20.31909778	      2.46733884	      3.23924040	     46.49259966	     -6.26177536	      0.81144894	     15.72073587	    -16.99420303	     -9.17809930	    -36.62467796	      7.40032080	     -3.40560602	     21.91820691	    -14.58379983	      4.59231399	     41.29039200	     90.00000001	      0.00000000	      0.00000000	     11.26168301	    -11.42423240	     -5.76866058	     32.22604790	     90.00000001	      0.00000000	      0.00000000
      0.50000000	      7.13147024	     -2.02413899	      9.86686020	     -1.00437803	      0.86816767	      0.19615243	     -6.77190983	      9.78068018	      0.89333318	     14.43150308	      0.85696795	      0.25187724	     22.56619804	    -12.48252324	     -9.14749704	     21.27230888	      2.40584823	      2.91746065	     44.08458756	     -6.03346680	      0.76942120	     15.66663288	    -16.49125059	     -9.14749704	    -36.34942813	      7.58939327	     -3.31744846	     22.59283133	    -14.81686759	      4.77449213	     41.73945260	     90.00000001	      0.00000000	      0.00000000	     10.68764789	    -11.21151374	     -5.97996898	     31.88339550	     90.00000001	      0.00000000	      0.00000000
